<?xml version="1.0" encoding="utf-8"?>
<!DOCTYPE svg PUBLIC "-//W3C//DTD SVG 1.0//EN" "http://www.w3.org/TR/2001/REC-SVG-20010904/DTD/svg10.dtd">
<svg version="1.0" xmlns="http://www.w3.org/2000/svg" width="1024px" height="1024px" viewBox="0 0 1024 1024" preserveAspectRatio="xMidYMid meet">
 <g fill="#0a1f2f">
  <path d="M0 512 l0 -512 512 0 512 0 0 512 0 512 -512 0 -512 0 0 -512z m544 238.5 c60.1 -9.2 113.8 -37.8 152.8 -81.4 27.5 -30.8 46.2 -63.9 57.6 -102.1 9.2 -31.1 12.8 -61.6 10.7 -91 -2.8 -37.2 -9.5 -63.5 -23.6 -92.5 -10.3 -21.1 -22.5 -39.6 -36.5 -55.5 l-4 -4.5 0 135 c0 87.6 -0.4 138 -1 143.4 -2 15.6 -7.4 29.4 -16.2 41.3 -13.5 18.3 -30.6 28.9 -54.6 33.8 -9.7 1.9 -13.4 2 -115.6 2 l-105.6 0 -3.2 -2.9 -3.3 -2.9 -0.3 -97.2 -0.2 -97.2 -12.8 0.4 c-10.2 0.2 -13.5 0.7 -16.7 2.3 -5.8 2.8 -12.7 10.1 -16.1 17 l-2.9 6 -0.2 93.5 -0.2 93.5 6.2 5.1 c36.5 30.2 81.8 49.3 130 54.9 14.9 1.7 40.9 1.2 55.7 -1z m-233.6 -275.5 c6.5 -19.8 19.8 -32.9 40.6 -40.1 5.8 -2 9 -2.3 28.3 -2.7 l21.7 -0.4 0 -37.4 c0 -41.1 0.6 -47.3 5.9 -58.9 3 -6.5 11.7 -16.1 19.3 -21.3 2.5 -1.7 7.3 -4 10.7 -5.2 6 -2 7.4 -2 84.9 -1.8 77.7 0.3 78.7 0.3 82.7 2.4 2.9 1.5 4.8 3.6 6.8 7.4 l2.8 5.3 -0.3 59.2 -0.3 59.1 -3.9 7.8 c-6.8 13.8 -20.7 25.3 -35.1 29 -5 1.4 -14.7 1.6 -63.7 1.6 l-57.8 0 0 74.9 0 75 2.2 1.5 c1.8 1.3 5.7 1.6 21.5 1.6 l19.2 0 0.3 -50.2 c0.3 -54.5 0.2 -53.5 5.8 -55.7 1.5 -0.6 20.8 -1.2 48 -1.4 43.3 -0.3 45.8 -0.4 52.5 -2.5 24.9 -7.6 44.2 -24.7 53 -46.7 5.3 -13.5 5.4 -15 5.5 -105.7 l0 -83.7 -7.7 -5.1 c-4.3 -2.8 -15.4 -8.9 -24.8 -13.5 -65.9 -32.4 -137.2 -36.5 -203.5 -11.7 -51.7 19.4 -95.3 53.9 -125.1 98.9 -8.3 12.6 -18.5 32.5 -24.5 47.9 -12.1 30.9 -18.7 74.1 -16.4 107 3.3 45.5 16.7 85.9 40.8 122.6 l7.7 11.6 0.5 -81.6 c0.5 -75.6 0.7 -82.1 2.4 -87.2z m313.8 154.2 c14.5 -5.8 24.9 -16.1 29 -28.6 2.1 -6.5 2.3 -8.8 2.3 -27.8 0 -11.4 -0.3 -21 -0.7 -21.3 -0.3 -0.4 -2.8 1 -5.6 2.9 -6.5 4.7 -17.7 9.8 -28.8 13.3 -8.8 2.7 -9.3 2.7 -44.4 3.2 l-35.5 0.6 -0.3 30.3 -0.2 30.3 39.2 -0.3 c38.3 -0.3 39.4 -0.4 45 -2.6z m-66.5 -198.8 c6.9 -2.3 10 -4.9 12.8 -10.5 l2.5 -4.9 -0.2 -29.7 -0.3 -29.8 -53.6 -0.3 -53.6 -0.2 -3.3 2.2 c-4.4 3 -6.9 6.6 -8 11.4 -0.5 2.1 -1 17.3 -1 33.7 l0 29.7 50 0 c43.4 0 50.6 -0.2 54.7 -1.6z"/>
 </g>
 <g fill="#195e8b">
  <path d="M497 755.7 c-0.3 -0.2 -4.3 -0.7 -9 -1.1 -39.1 -3 -83.1 -19.2 -117 -43.1 -5.2 -3.7 -12.3 -9.1 -15.7 -11.9 l-6.2 -5.1 -0.1 -37 c-0.3 -157.9 -0.4 -152.5 1.9 -158.5 4 -10.4 12.1 -18.8 21 -21.8 2 -0.7 9.5 -1.2 17.7 -1.2 l14.4 0 0.1 56.3 c0 30.9 0.1 74.6 0.2 97 l0.2 40.9 3.3 2.9 3.2 2.9 87.5 0 c57.7 0 87.5 0.3 87.5 1 0 0.6 1.1 1 2.5 1 2 0 2.5 0.5 2.5 2.5 0 2 0.5 2.5 2.5 2.5 2.2 0 2.5 0.4 2.5 3.3 0 3.2 -0.2 3.4 -4.7 4.4 -4.3 0.9 -4.4 1 -1.5 1.2 l3.2 0.1 0 6 c0 3.3 0.4 6 1 6 0.6 0 1 0.7 1 1.5 0 1 1.1 1.5 3.5 1.5 3.3 0 3.5 0.2 3.5 3.5 0 3.3 -0.2 3.5 -3.5 3.5 -2.4 0 -3.5 -0.5 -3.5 -1.5 0 -0.8 -0.9 -1.5 -2 -1.5 -1.5 0 -2 0.7 -2 2.5 0 2.4 -0.3 2.5 -6 2.5 -4.6 0 -6 -0.3 -6 -1.5 0 -0.9 -0.6 -1.2 -1.5 -0.9 -1 0.4 -1.5 2 -1.5 4.5 0 3.8 -0.1 3.9 -3.5 3.9 -2.3 0 -3.5 0.5 -3.5 1.4 0 1.6 -2.1 2.6 -5.6 2.6 -1.7 0 -2.4 0.6 -2.4 2 0 1.6 -0.7 2 -3.4 2 -1.9 0 -3.6 -0.5 -3.8 -1.1 -0.5 -1.6 -4.8 -0.1 -4.8 1.7 0 0.8 -1 1.4 -2.4 1.4 -2.6 0 -3.6 2.8 -3.6 10.7 0 3.8 0.3 4.4 1.8 3.9 0.9 -0.3 4 -0.8 6.7 -1.1 13.6 -1.8 60.1 -16 61.3 -18.7 0.2 -0.5 1.4 -0.8 2.6 -0.8 1.2 0 2.9 -0.9 3.9 -2 0.9 -1.1 2.4 -2 3.3 -2 0.8 0 2.2 -0.7 3 -1.5 0.9 -0.8 2.4 -1.5 3.3 -1.5 1 0 2.4 -0.7 3.1 -1.5 0.7 -0.8 2.3 -1.5 3.6 -1.5 1.3 0 2.4 -0.6 2.4 -1.2 0 -1.3 1.7 -2.5 10.5 -7.7 2.2 -1.3 4.2 -2.7 4.5 -3 0.3 -0.3 2.1 -1.7 4 -3 1.9 -1.4 3.9 -3 4.3 -3.8 0.4 -0.7 1.3 -1.3 1.8 -1.3 1.3 0 9 -5.9 10.7 -8.2 1.4 -1.9 9.6 -2.6 10.6 -1 1.3 2.2 -29.2 25.5 -45.7 34.8 -29.3 16.7 -58.3 26.7 -91.7 31.9 -10 1.5 -48.9 3.3 -50 2.2z m84.9 -69.3 c0.2 -0.2 -1 -0.4 -2.7 -0.4 -1.8 0 -3.2 0.5 -3.2 1 0 0.9 4.7 0.4 5.9 -0.6z"/>
  <path d="M603 691.5 c0 -3.3 0.2 -3.5 3.5 -3.5 3.3 0 3.5 0.2 3.5 3.5 0 3.3 -0.2 3.5 -3.5 3.5 -3.3 0 -3.5 -0.2 -3.5 -3.5z"/>
  <path d="M685.3 685.3 c-0.7 -0.3 -1.3 -1.9 -1.3 -3.7 0 -3.6 5.2 -9.6 8.3 -9.6 1.1 0 1.7 -0.8 1.7 -2.3 0 -1.2 1.4 -3.5 3.3 -5.2 1.7 -1.7 3.8 -4.3 4.6 -5.8 0.8 -1.5 2 -2.7 2.8 -2.7 0.7 0 1.3 -0.7 1.3 -1.5 0 -0.9 0.7 -1.8 1.5 -2.1 0.8 -0.4 1.5 -1.2 1.5 -2 0 -0.7 1.4 -2.7 3 -4.4 1.7 -1.7 3 -3.7 3 -4.5 0 -0.8 0.4 -1.5 0.8 -1.5 0.4 0 1.3 -1.2 2 -2.7 0.6 -1.6 2.5 -5 4.2 -7.7 2.6 -4.1 3 -5.7 2.8 -10 -0.2 -4 -0.7 -5.2 -2.1 -5.4 -1.3 -0.3 -2.2 0.6 -3 2.7 -0.6 1.7 -1.5 3.1 -1.9 3.1 -0.4 0 -0.8 1.1 -0.8 2.5 0 2.2 -0.4 2.5 -3.4 2.5 -3 0 -3.5 -0.4 -3.9 -2.7 -0.3 -2.4 -0.5 -2.2 -1.2 1.5 -0.7 4.1 -0.9 4.2 -4.6 4.2 -2.2 0 -3.9 -0.4 -3.9 -0.9 0 -0.5 -1.2 -1.1 -2.6 -1.4 -2.2 -0.4 -2.8 0 -3.6 2.4 -0.5 1.6 -1.6 2.9 -2.4 2.9 -0.8 0 -1.4 0.9 -1.4 2.1 0 2.9 -1.8 5.9 -3.5 5.9 -0.8 0 -1.5 0.9 -1.5 2 0 1.6 -0.7 2 -3.1 2 l-3.1 0 3.5 -4.7 c7.3 -10.1 12.8 -24.9 14.7 -39.4 0.6 -5.4 1 -56.5 1 -145.6 0 -80 0.4 -137.3 0.9 -137.3 1.2 0 13.5 13.9 20.9 23.6 13.5 17.9 28.6 45.7 35.1 65 15 44.4 17.9 97.8 7.9 144.4 -6.2 28.9 -19.1 61.5 -33.4 84 -14.1 22.2 -40.6 53.6 -44.1 52.3z"/>
  <path d="M608 678 c0 -1.7 0.7 -2 4.4 -2 2.4 0 5.1 -0.3 6 -0.6 1.2 -0.5 1.6 0 1.6 2 0 2.5 -0.2 2.6 -6 2.6 -5.3 0 -6 -0.2 -6 -2z"/>
  <path d="M537.2 601.8 l0.3 -33.3 35.5 -0.6 c35.1 -0.5 35.6 -0.5 44.4 -3.2 12.6 -3.9 22.5 -8.7 32.3 -15.7 4.6 -3.3 8.6 -6 8.8 -6 0.3 0 0.3 12.3 0.2 27.3 -0.3 25.3 -0.5 27.7 -2.6 33.8 -4.2 12.2 -14.7 22.4 -28.9 28.1 -5.6 2.2 -6.5 2.3 -48 2.6 l-42.2 0.3 0.2 -33.3z"/>
 </g>
 <g fill="#56adcc">
  <path d="M307.2 650.3 c-12.2 -15.8 -25.4 -38.9 -33.5 -59.3 -20.4 -51 -23.8 -108.4 -9.7 -164.6 19.9 -79 78.9 -143.9 158 -173.6 16.2 -6.1 40.5 -12 58 -14.3 10.3 -1.3 34.9 -2.6 40.5 -2.1 3.3 0.3 9.8 0.8 14.5 1.1 20.4 1.4 45.1 6.7 67.5 14.5 14.2 5 42.8 18.8 53.8 26 l7.7 5.1 0 40 0 39.9 -2.9 0 -2.8 0 -0.6 -8.2 c-0.4 -4.6 -0.7 -15.4 -0.7 -24 0 -15.1 -0.1 -15.8 -2 -15.8 -1.3 0 -2 0.7 -2 2 0 1.1 -0.7 2 -1.5 2 -1 0 -1.5 1 -1.5 3 l0 3 -10.5 0 c-9.8 0 -10.5 0.1 -10.5 2 0 1.7 -0.7 2 -4 2 -3.8 0 -4 0.2 -4 3 0 2.5 -0.4 3 -2.5 3 l-2.5 0 -0.1 20.3 c-0.1 29.2 0 28.1 -2.6 28.5 l-2.3 0.3 0 -29.4 0 -29.5 -2.8 -5.2 c-1.9 -3.8 -3.8 -5.9 -6.7 -7.4 -3.9 -2.1 -5 -2.1 -79.7 -2.4 -74.5 -0.2 -75.9 -0.2 -81.9 1.8 -3.4 1.2 -8.2 3.5 -10.7 5.2 -7.6 5.2 -16.3 14.8 -19.3 21.3 -5.3 11.6 -5.9 17.8 -5.9 58.9 l0 37.4 -21.7 0.4 c-19.3 0.4 -22.5 0.7 -28.3 2.7 -16.9 5.9 -29.4 16.1 -36 29.4 -6.8 13.8 -7 15.7 -7 74 l0 51.7 -2.5 0 c-1.8 0 -2.5 -0.5 -2.5 -2 0 -1.1 -0.4 -2 -1 -2 -0.6 0 -1 -12.7 -1 -36 0 -34.7 -0.1 -36 -1.9 -36 -1.7 0 -3.1 1.8 -3.1 4.1 0 0.5 0.7 0.9 1.5 0.9 2.3 0 1.9 6.6 -0.5 9 -1.1 1.1 -2.7 2 -3.5 2 -0.8 0 -1.5 0.5 -1.5 1 0 0.6 -0.7 1 -1.5 1 -1 0 -1.5 1 -1.5 3.1 0 2.9 -0.1 3 -4 2.8 -2.1 -0.2 -4.2 0 -4.6 0.4 -0.4 0.4 0 0.7 0.9 0.7 1.3 0 1.7 0.9 1.7 3.4 0 3.3 -0.1 3.4 -5.9 4.6 -8.3 1.7 -11.1 0.9 -11.1 -3.4 0 -2.8 0.5 -3.6 3 -4.6 3.5 -1.4 3.5 -1.5 -0.2 -2.4 -2.4 -0.5 -2.8 -0.3 -2.8 1.4 0 1.4 -0.7 2 -2.1 2 -1.9 0 -2 0.4 -1.4 4.3 1.1 6.7 7.2 27.4 11.2 37.7 8.1 21.5 28 56 32.3 56 1.8 0 2 0.6 2 6.5 0 3.6 -0.2 6.5 -0.4 6.5 -0.2 0 -1.8 -1.7 -3.4 -3.7z m313.8 -325.3 c0 -2 0.5 -3 1.5 -3 3.4 0 1.1 -1.8 -3.1 -2.5 -5.3 -0.8 -6 -0.4 -4.5 2.3 0.6 1.2 1.1 3 1.1 4.1 0 1.6 0.6 2.1 2.5 2.1 2.1 0 2.5 -0.5 2.5 -3z"/>
  <path d="M495 628 c0 -6.3 0.2 -7 2 -7 1.8 0 2 0.7 2 5.4 0 3 0.3 6.1 0.6 7 0.5 1.2 0 1.6 -2 1.6 -2.6 0 -2.6 -0.1 -2.6 -7z"/>
  <path d="M306 628.5 c0 -3.1 0.3 -3.5 2.5 -3.5 2.2 0 2.5 0.4 2.5 3.5 0 3.1 -0.3 3.5 -2.5 3.5 -2.2 0 -2.5 -0.4 -2.5 -3.5z"/>
  <path d="M450 598 l0 -31 2.5 0 2.5 0 0 31 0 31 -2.5 0 -2.5 0 0 -31z"/>
  <path d="M495 614 c0 -4.3 0.3 -5 2 -5 1.7 0 2 0.7 2 5 0 4.3 -0.3 5 -2 5 -1.7 0 -2 -0.7 -2 -5z"/>
  <path d="M495 596 c0 -8.3 0.1 -9 2 -9 1.9 0 2 0.7 2 9 0 8.3 -0.1 9 -2 9 -1.9 0 -2 -0.7 -2 -9z"/>
  <path d="M403 532.6 c0 -52 -0.1 -55.5 -1.7 -55.9 -1.4 -0.4 -1.2 -0.5 0.5 -0.6 l2.2 -0.1 0 56 c0 30.8 -0.2 56 -0.5 56 -0.3 0 -0.5 -24.9 -0.5 -55.4z"/>
  <path d="M495 575.5 c0 -4.8 0.3 -5.5 1.9 -5.5 2.2 0 2.8 2.4 2.2 7.8 -0.2 2.3 -0.8 3.2 -2.2 3.2 -1.6 0 -1.9 -0.8 -1.9 -5.5z"/>
  <path d="M495 551.5 l0 -17.5 2.3 0 c2.2 0 2.3 0.3 2 6.8 -0.1 3.7 -0.3 11.5 -0.3 17.5 0 10 -0.1 10.7 -2 10.7 -1.9 0 -2 -0.7 -2 -17.5z"/>
  <path d="M450 518 l0 -42 57.3 0 c31.4 0 58.9 -0.3 61 -0.6 3.5 -0.6 3.7 -0.5 3.7 2 l0 2.6 -58.5 0 -58.5 0 0 40 0 40 -2.5 0 -2.5 0 0 -42z"/>
  <path d="M509 525.5 l0 -2.5 14.5 0 14.5 0 0 2.5 0 2.5 -14.5 0 -14.5 0 0 -2.5z"/>
  <path d="M596 524.5 c0 -2.2 0.4 -2.5 3.5 -2.5 2.8 0 3.5 0.4 3.5 1.9 0 1.1 -0.9 2.1 -2.2 2.5 -3.9 1 -4.8 0.7 -4.8 -1.9z"/>
  <path d="M644 496.6 c0 -3.5 0.1 -3.6 3.6 -3.6 l3.7 0 -2.5 3.2 c-3.5 4.5 -4.8 4.6 -4.8 0.4z"/>
  <path d="M579 473.1 c0 -0.8 8.1 -6.1 9.4 -6.1 1.4 0 0.5 5.8 -1 6.4 -2.4 0.9 -8.4 0.7 -8.4 -0.3z"/>
  <path d="M658 467.1 c0 -1 0.3 -3.9 0.6 -6.5 0.6 -4 1 -4.6 3.1 -4.6 1.8 0 2.3 0.4 2 1.8 -0.3 0.9 -0.8 3.8 -1.2 6.5 -0.5 3.8 -1 4.7 -2.6 4.7 -1.2 0 -1.9 -0.7 -1.9 -1.9z"/>
  <path d="M590 466.2 c0 -0.4 2 -2.4 4.4 -4.5 2.5 -2 6.4 -6.6 8.7 -10.2 2.4 -3.6 4.7 -6.5 5.1 -6.5 1.9 0 0.7 7.7 -1.7 11.3 -2.1 3.1 -3.2 3.7 -6 3.7 -3.3 0 -3.5 0.2 -3.5 3.5 0 3.3 -0.2 3.5 -3.5 3.5 -1.9 0 -3.5 -0.4 -3.5 -0.8z"/>
  <path d="M450 402.3 c0 -18.1 0.5 -34.6 1 -36.7 1.1 -4.8 3.6 -8.4 8 -11.4 l3.3 -2.2 56.6 0.2 56.6 0.3 0.3 32.8 0.2 32.7 -2.5 4.9 c-2.8 5.6 -5.9 8.2 -12.8 10.5 -4.2 1.4 -11.6 1.6 -57.7 1.6 l-53 0 0 -32.7z m107.5 25 c2.2 -0.8 5 -1.7 6.3 -2 1.2 -0.3 2.2 -1.1 2.2 -1.9 0 -0.7 0.9 -2.8 2 -4.6 1.1 -1.8 2 -4.3 2 -5.5 0 -1.3 0.5 -2.3 1 -2.3 0.6 0 1 -9.4 1 -26.1 0 -21.2 -0.3 -26.3 -1.4 -27.5 -1.1 -1.1 -4.4 -1.4 -13.5 -1.4 l-12.1 0 0 3.1 c0 3.3 -1.9 5.9 -4.4 5.9 -1.1 0 -1.6 0.9 -1.6 3 0 2.5 -0.4 3 -2.5 3 -1.7 0 -2.5 0.6 -2.5 1.6 0 1.5 -0.8 1.6 -6 1.1 -5.8 -0.6 -6 -0.6 -6 1.6 0 2.8 -3.2 5.7 -6.4 5.7 -1.4 0 -2.6 0.6 -2.8 1.2 -0.5 1.3 3.4 3.8 5.8 3.8 0.9 0 1.4 1.2 1.4 3.5 0 2.4 -0.5 3.5 -1.5 3.5 -0.8 0 -1.5 0.5 -1.5 1 0 0.6 -1.6 1 -3.5 1 -2.4 0 -3.5 -0.5 -3.5 -1.5 0 -0.8 -0.4 -1.5 -1 -1.5 -0.5 0 -1 -1.1 -1 -2.5 0 -1.4 -0.4 -2.5 -1 -2.5 -0.5 0 -1 0.5 -1 1 0 0.6 -1.1 1 -2.5 1 -2.2 0 -2.5 0.4 -2.5 3.5 0 1.9 -0.4 3.5 -1 3.5 -0.5 0 -1 0.9 -1 2 0 1.6 -0.7 2 -3.5 2 -2.8 0 -3.5 0.4 -3.5 2 0 1.8 -0.7 2 -6.9 2 -4.7 0 -7.1 -0.4 -7.4 -1.2 -0.2 -0.7 -0.7 1.2 -1.1 4.3 -0.6 4.7 -1.1 5.8 -3.2 6.8 -1.4 0.6 -3.1 1.1 -3.9 1.1 -0.8 0 -1.5 0.9 -1.5 2 0 1.7 -0.7 2 -4 2 -2.2 0 -4 0.5 -4 1 0 0.6 1.4 1 3 1 2.8 0 3 0.3 3 3.5 l0 3.5 35.3 0.2 c19.3 0.1 37.3 0 39.8 -0.1 2.6 -0.2 5 0.2 5.3 0.8 0.8 1.2 5.1 0.5 11.1 -1.6z m-65.3 -32.8 c0.3 -1.4 0.1 -2.8 -0.3 -3.1 -0.5 -0.3 -0.9 0.9 -0.9 2.5 0 3.8 0.6 4 1.2 0.6z"/>
  <path d="M631 333.5 c0 -3.3 0.2 -3.5 3.5 -3.5 3.3 0 3.5 0.2 3.5 3.5 0 3.3 -0.2 3.5 -3.5 3.5 -3.3 0 -3.5 -0.2 -3.5 -3.5z"/>
 </g>
 <g fill="#489dc3">
  <path d="M310 652.6 c0 -0.8 -1.4 -2.4 -3 -3.6 -1.7 -1.2 -2.8 -2.6 -2.5 -3 0.8 -1.2 -5 -9.1 -6 -8.2 -0.3 0.4 -0.6 0.3 -0.5 -0.3 0.5 -2.1 0 -3.6 -1 -3 -0.6 0.4 -1 0.3 -0.9 -0.2 0.4 -2.1 -0.2 -3.4 -1.3 -2.7 -0.6 0.4 -0.8 0.3 -0.5 -0.3 0.8 -1.2 -7.7 -15.5 -8.7 -14.6 -0.4 0.4 -0.4 -0.1 0 -1.1 0.6 -1.5 0.4 -1.7 -0.6 -1.1 -0.8 0.5 -1.1 0.4 -0.7 -0.3 0.9 -1.4 -0.3 -4.3 -1.4 -3.6 -0.5 0.3 -0.6 -0.3 -0.2 -1.2 0.5 -1.3 0.3 -1.5 -0.7 -0.9 -0.8 0.5 -1.1 0.4 -0.7 -0.3 1 -1.5 -0.3 -4.3 -1.6 -3.5 -0.5 0.3 -0.7 0.1 -0.4 -0.4 0.9 -1.4 -2.7 -9.5 -3.8 -8.5 -0.5 0.4 -0.5 0.2 -0.2 -0.4 0.9 -1.6 -3.7 -13.7 -4.8 -12.7 -0.4 0.5 -0.5 0.3 -0.2 -0.3 0.8 -1.4 -6.7 -27.6 -7.7 -26.7 -0.4 0.4 -0.4 0 -0.1 -0.8 0.3 -0.9 0.1 -4.5 -0.5 -8 -1.2 -6.6 -1.3 -7.6 -3 -19.7 -1.3 -9.3 -1.3 -17.2 0 -17.2 0.5 0 0.7 0.7 0.4 1.5 -0.4 0.8 -0.1 1.5 0.4 1.5 0.6 0 2.5 1.3 4.3 2.9 3.2 3 3.3 5.1 0.1 4.7 -0.9 -0.2 -2 0.2 -2.4 0.8 -1.2 1.8 -0.9 2.6 0.8 1.9 0.9 -0.3 2 0 2.5 0.8 0.4 0.8 1.4 1.4 2.1 1.4 0.7 0 1.2 0.9 1 2.1 -0.3 2.3 3.3 4.1 4.5 2.2 0.3 -0.7 0.1 -0.8 -0.5 -0.4 -0.7 0.4 -1.2 0.1 -1.2 -0.9 0 -0.9 0.9 -1.9 2 -2.2 2.1 -0.6 2.6 -1.8 1.1 -2.8 -0.5 -0.3 -1.2 -0.1 -1.6 0.5 -0.3 0.5 -1.1 1 -1.6 1 -0.6 0 0.2 -1.1 1.7 -2.5 3.3 -3 3.7 -3.1 2.9 -0.5 -0.4 1.1 -0.2 2 0.4 2 0.6 0 0.8 0.6 0.6 1.3 -0.4 0.8 0.6 1.2 3 1.3 2.7 0 3.6 -0.4 4.1 -2 0.4 -1.2 0.5 -2.2 0.3 -2.4 -0.2 -0.2 0.7 -1 2.1 -1.7 1.9 -1 2.7 -1 3.2 -0.2 0.5 0.8 0.8 0.4 0.8 -0.9 0 -1.1 0.7 -2.1 1.5 -2.1 1 0 1.4 1 1.3 3.3 -0.1 2.9 -0.4 3.2 -2 2.3 -1.3 -0.7 -1.8 -0.6 -1.8 0.4 0 2.5 4.5 1.5 4.8 -1 0.2 -1.3 0.8 -2.3 1.3 -2.3 1.1 0 0.7 -2.3 -0.6 -3.2 -0.6 -0.5 -0.3 -0.8 0.7 -0.8 1.8 0 3.3 -3.3 2.3 -5 -0.3 -0.5 0.1 -1 0.9 -1 0.9 0 1.6 -0.4 1.6 -1 0 -0.5 0.6 -1 1.4 -1 0.8 0 1.7 -0.6 1.9 -1.2 0.3 -0.7 0.6 -0.8 0.6 -0.2 0.1 0.5 -0.8 2 -1.9 3.2 -1.3 1.4 -1.6 2.2 -0.8 2.2 1.1 0 1.1 0.2 0 0.8 -0.8 0.6 -0.3 0.9 1.6 0.9 2.7 0 2.9 -0.2 2.6 -3.8 -0.1 -2.1 -0.5 -4.3 -0.9 -4.9 -0.3 -0.5 -0.1 -1 0.4 -1 0.6 0 1.1 -0.7 1.1 -1.5 0 -0.8 -0.7 -1.5 -1.5 -1.5 -0.8 0 -1.5 -0.7 -1.5 -1.5 0 -0.8 0.6 -1.5 1.3 -1.5 0.7 0 1.4 -1.4 1.5 -3.1 0.1 -1.7 -0.1 -2.8 -0.6 -2.5 -0.5 0.3 -0.9 -0.2 -0.9 -1 0 -2.1 2.1 -1.1 2.6 1.2 0.2 1 0.8 2.2 1.5 2.6 0.8 0.6 0.7 0.8 -0.1 0.8 -0.7 0 -1.3 0.6 -1.3 1.4 0 0.8 0.6 1.7 1.3 1.9 1 0.4 1 0.6 0 0.6 -0.7 0.1 -1.3 0.7 -1.3 1.5 0 0.8 0.6 1.7 1.3 1.9 1 0.4 1 0.6 0 0.6 -0.7 0.1 -1.3 1 -1.3 2 0 1.1 0.6 2.2 1.3 2.4 0.9 0.4 0.8 0.8 -0.3 1.6 -1.3 1 -1.3 1.2 0 2.1 1 0.6 1.1 1 0.3 1 -0.7 0 -1.3 0.5 -1.3 1.1 0 1.5 2.6 3.9 3.4 3.2 0.3 -0.4 0.6 -0.1 0.6 0.5 0 0.6 -0.9 1.4 -2 1.7 -2.2 0.7 -2.7 3 -0.7 3.9 1 0.5 1 0.7 0 1.2 -0.7 0.3 -1.3 1.8 -1.3 3.4 0 1.6 0.6 3.1 1.3 3.3 1 0.4 1 0.6 0 0.6 -0.7 0.1 -1.3 0.7 -1.3 1.5 0 0.8 0.6 1.7 1.3 2 1 0.5 1 0.7 0 1.2 -0.7 0.3 -1.3 1.7 -1.3 3 0 1.7 0.6 2.4 2 2.4 1.8 0 2 0.6 1.8 7.3 l-0.2 7.2 -0.3 -6.2 c-0.3 -4.7 -0.8 -6.3 -1.8 -6.3 -1.8 0 -2 2.6 -0.2 3.3 1 0.4 1 0.6 0 0.6 -0.7 0.1 -1.3 1 -1.3 2 0 1.1 0.6 2.2 1.3 2.5 1 0.5 1 0.7 0 1.2 -1.8 0.8 -1.6 4.4 0.2 4.4 2 0 1.9 1.7 -0.2 2.9 -1.6 0.9 -1.6 1.2 -0.3 2.1 1.3 0.9 1.3 1 0 1 -1.3 0 -1.3 0.1 0 1 1.1 0.7 1.7 0.4 2.2 -1.3 0.5 -1.8 0.6 -1.6 0.7 1.1 0.1 2.7 -0.3 3.2 -2.1 3.3 l-2.3 0 2.3 1.1 c1.8 0.9 2.2 1.9 2.2 6 0 4.3 -0.2 4.8 -2.2 4.9 -1.3 0 -1.7 0.3 -1 0.6 0.6 0.2 1.2 1.1 1.2 1.9 0 0.9 0.5 1.2 1.2 0.8 0.7 -0.4 0.8 -0.3 0.4 0.4 -0.4 0.7 -1.5 1.2 -2.4 1.2 -1.6 0.1 -1.6 0.1 0 1.1 1.1 0.6 1.5 1.6 1.1 2.6 -0.4 1.1 -0.3 1.4 0.5 0.9 0.9 -0.5 1.2 7.2 1.2 31.8 0 17.9 -0.2 32.6 -0.5 32.6 -0.3 0 -0.5 -0.6 -0.5 -1.4z m0 -77.6 c0 -1.1 -0.7 -2 -1.5 -2 -1.8 0 -1.9 0.6 -0.2 2.5 1.6 1.9 1.7 1.8 1.7 -0.5z m-31.3 -28.7 c-0.4 -0.3 -0.2 -1.2 0.4 -1.9 0.8 -0.9 0.5 -1.1 -1 -0.7 -2.4 0.6 -2.7 1.9 -0.8 2.6 1.8 0.8 2.1 0.8 1.4 0z m4.4 -17.1 c1.1 -0.7 1.9 -1.9 1.9 -2.5 0 -0.8 -0.3 -0.8 -0.9 0.2 -0.5 0.8 -1.6 1.1 -2.9 0.7 -1.7 -0.6 -2 -0.3 -1.7 1.3 0.2 1.2 -0.1 2.1 -0.6 2.1 -0.5 0 -0.4 0.6 0.3 1.4 1.1 1.2 1.4 1.2 1.7 -0.2 0.2 -0.9 1.2 -2.3 2.2 -3z m8.4 1.8 c-0.4 -0.6 0.6 -1 2.2 -1 2.2 0 2.5 -0.2 1.3 -1 -1.3 -0.8 -1.2 -1 0.5 -1.1 1.7 -0.1 1.7 -0.2 0.2 -0.6 -0.9 -0.2 -1.4 -0.9 -1.1 -1.5 0.4 -0.7 0.2 -0.8 -0.4 -0.4 -0.7 0.4 -1.2 1.4 -1.2 2.2 0 0.8 -0.7 1.4 -1.5 1.4 -0.8 0 -1.5 0.7 -1.5 1.5 0 0.8 0.5 1.5 1.1 1.5 0.5 0 0.7 -0.4 0.4 -1z m-26.5 -3.5 c0 -0.8 -0.7 -1.5 -1.5 -1.5 -1.6 0 -2 1.2 -0.8 2.3 1.1 1.2 2.3 0.8 2.3 -0.8z"/>
  <path d="M403.4 617.5 c0 -18.1 0.2 -25.7 0.3 -16.8 0.2 8.9 0.2 23.7 0 33 -0.1 9.2 -0.3 2 -0.3 -16.2z"/>
  <path d="M452.2 633.4 l-2.2 -1.5 0.2 -75.2 c0.2 -56.8 0.4 -66.9 0.8 -41.2 l0.5 34 0.3 -36.2 0.2 -36.3 12.8 -0.1 c7 0 33.3 -0.1 58.5 -0.2 25.1 0 45.1 -0.4 44.5 -0.9 -0.9 -0.5 -0.7 -0.8 0.7 -0.8 3.2 0 17.5 -5.2 16.9 -6.1 -0.3 -0.5 -0.1 -0.9 0.5 -0.9 0.5 0 2.3 -1.2 4 -2.6 1.7 -1.4 3.1 -2.4 3.1 -2.1 0 0.2 2.5 -2 5.5 -5 3.3 -3.1 5.3 -5.8 4.9 -6.5 -0.4 -0.7 -0.3 -0.8 0.4 -0.4 0.7 0.4 1.5 -0.7 2.1 -2.6 0.6 -1.8 1.9 -5.8 3 -8.8 1.8 -5 2 -8 2.1 -32.1 0 -19.2 0.3 -26.8 1.2 -27.7 0.9 -0.9 0.9 -1.2 0 -1.2 -1.4 0 -1.2 -6.1 0.3 -7.2 0.7 -0.5 0.6 -0.8 0 -0.8 -0.6 0 -1.2 -1.7 -1.3 -3.7 -0.2 -2.8 0 -3.4 0.8 -2.3 0.8 1.2 1 1.2 1 -0.6 0 -1.1 -0.5 -2.5 -1.2 -3.2 -0.7 -0.7 -0.8 -1.2 -0.2 -1.2 0.7 0 1.1 -5.8 1.3 -15.8 0.2 -13.8 0 -16.7 -1.8 -22 -1.2 -3.4 -2.1 -6.9 -2.1 -7.7 0 -1.5 0.1 -1.5 1.6 -0.1 2 2.1 3.6 1.1 2.9 -1.7 -0.2 -1.2 -0.2 -1.6 0.1 -0.9 0.3 0.6 1 1.2 1.5 1.2 0.6 0 0.7 -0.4 0.4 -1 -0.4 -0.7 0.3 -0.7 1.9 0 2.1 0.7 2.6 0.6 2.6 -0.5 0 -0.8 0.7 -1.5 1.5 -1.5 2.2 0 1.8 2.8 -0.5 3.5 -2.3 0.7 -2.7 2.5 -0.5 2.5 2.2 0 3 -0.4 2.7 -1.3 -0.1 -0.5 0.2 -0.5 0.8 -0.2 0.6 0.4 2 -0.1 3 -1 1.9 -1.7 1.9 -1.8 -0.3 -3.5 -1.2 -1 -1.9 -2.2 -1.5 -2.6 0.5 -0.4 1.7 0.1 2.7 1 2 1.8 6 1.9 7.3 0.1 0.5 -0.6 0.8 -0.5 0.8 0.3 0 0.7 0.4 1.1 0.9 0.7 0.6 -0.3 0.8 -1.4 0.6 -2.5 -0.3 -1.4 0.2 -2 1.6 -2 1 0 1.9 0.5 1.9 1 0 0.6 0.6 0.5 1.4 -0.2 1.2 -1.1 1.1 -1.5 -0.5 -2.3 -1.1 -0.7 -1.5 -1.5 -1 -2.3 0.6 -1 1 -1 2.1 0.3 0.7 0.8 2.4 1.6 3.9 1.6 2.4 0.2 2.4 0.2 0.3 0.6 -1.9 0.4 -2.2 0.9 -1.8 3.4 0.2 1.6 0 3.1 -0.5 3.5 -0.5 0.3 -0.9 1.1 -0.9 1.7 0 0.8 0.3 0.7 0.9 -0.2 0.5 -0.7 1.4 -1 2.1 -0.6 1.5 0.9 1 -4.6 -0.5 -5.7 -0.5 -0.4 0.7 -0.8 2.8 -0.8 3 0 4 -0.4 4.4 -2 0.3 -1.1 0.9 -1.8 1.3 -1.5 1.1 0.7 4 -0.5 4 -1.7 0 -0.5 -0.3 -0.7 -0.7 -0.5 -0.5 0.3 -1.4 -0.1 -2.1 -0.9 -1.3 -1.4 -0.5 -1.9 2.1 -1.5 1.2 0.2 0.8 -1.7 -0.5 -2.1 -0.7 -0.3 -0.8 -1 -0.4 -1.7 1.9 -3 2.6 2.1 2.6 18.7 0 16.8 0.1 17.3 2.2 18.1 l2.2 0.8 -2.2 0.5 c-3.2 0.9 -3.2 6.8 0.1 6.9 2.1 0.1 2.1 0.1 -0.3 0.9 l-2.5 0.8 2.3 0.7 c1.2 0.4 2.2 1.4 2.2 2.1 0 1.7 -2.7 1.8 -3.3 0.2 -0.3 -0.8 -0.6 -0.6 -0.6 0.5 -0.1 1.1 0.7 1.7 2.2 1.8 l2.2 0 -2.2 0.9 c-2.9 1.2 -2.9 2.8 0 4 1.7 0.7 1.8 0.9 0.5 0.9 -2.2 0.1 -2.4 2.1 -0.3 2.1 0.8 0 1.5 0.9 1.5 2 0 1.1 -0.7 2 -1.5 2 -0.8 0 -1.5 0.7 -1.5 1.5 0 0.8 0.7 1.5 1.5 1.5 1.3 0 1.5 6.1 1.5 48.9 0 30.5 -0.4 49.2 -1 49.6 -0.5 0.3 -0.7 1.9 -0.3 3.5 0.3 1.7 0.2 3 -0.3 3 -0.5 0 -0.9 1.5 -1 3.3 -0.1 4.3 -4.8 15.8 -9.6 23.4 -5.6 8.8 -18.7 20.9 -28.4 26 -9 4.7 -20.7 8.8 -23 7.9 -0.8 -0.3 -1.3 -0.2 -1 0.3 1 1.5 -9.4 2.1 -37.1 2.1 -17.6 0 -27.3 -0.4 -27.3 -1 0 -1.4 -2.7 -1.2 -3.4 0.3 -0.5 1 -0.7 1 -1.2 0 -0.7 -1.5 -4.4 -1.7 -4.4 -0.3 0 0.6 -1.3 1 -3 1 -1.6 0 -3 -0.4 -3 -1 0 -1.5 -4.7 -1.2 -5.3 0.3 -0.4 0.9 -0.8 0.8 -1.6 -0.3 -0.7 -1 -1.1 -1.1 -1.1 -0.2 0 0.6 -1.2 1.2 -2.6 1.2 -4.6 0 -9.3 3.6 -9.4 7.3 0 0.9 -0.4 1.7 -0.9 1.7 -1.2 0 -1.2 7.2 0 8.7 0.6 0.6 0.6 1.3 0.2 1.6 -0.9 0.6 -0.9 84.4 0 85.4 2 2 -1.3 2.3 -22.1 2.3 -19 0 -23.1 -0.3 -25 -1.6z m-0.5 -22.6 c-0.2 -1.8 -0.4 -0.6 -0.4 2.7 0 3.3 0.2 4.8 0.4 3.3 0.2 -1.5 0.2 -4.2 0 -6z m0 -23.5 c-0.2 -3.2 -0.3 -0.8 -0.3 5.2 0 6.1 0.1 8.7 0.3 5.8 0.2 -2.9 0.2 -7.8 0 -11z m195.3 -266.8 c0 -0.9 -0.6 -1.2 -1.5 -0.9 -0.8 0.4 -1.5 1 -1.5 1.5 0 0.5 0.7 0.9 1.5 0.9 0.8 0 1.5 -0.7 1.5 -1.5z m-17 -4.6 c0 -1.3 -3.7 -1.1 -4.6 0.3 -0.5 0.8 -0.2 0.9 0.9 0.5 1 -0.3 1.7 -0.2 1.7 0.4 0 0.6 0.5 0.7 1 0.4 0.6 -0.3 1 -1 1 -1.6z m3.8 -3.2 c0.8 -1 0.5 -1.3 -1.4 -1.5 -2.1 -0.2 -2.3 0 -1.2 1.3 1.6 1.8 1.4 1.7 2.6 0.2z m19.9 -3.6 c-0.8 -2.2 -1.3 -2.6 -2.3 -1.7 -0.9 0.8 -0.9 1.3 0 1.8 0.6 0.4 0.7 0.8 0.3 0.8 -1.4 0 0.3 2 1.8 2 1 0 1.1 -0.6 0.2 -2.9z"/>
  <path d="M349.2 620 c0 -1.9 0.2 -2.7 0.5 -1.7 0.2 0.9 0.2 2.5 0 3.5 -0.3 0.9 -0.5 0.1 -0.5 -1.8z"/>
  <path d="M349.4 574.5 c0 -4.9 0.1 -7.1 0.3 -4.8 0.2 2.3 0.2 6.4 0 9 -0.2 2.6 -0.3 0.8 -0.3 -4.2z"/>
  <path d="M349.4 554.5 c0 -6 0.1 -8.4 0.3 -5.2 0.2 3.2 0.2 8.1 0 11 -0.2 2.9 -0.3 0.3 -0.3 -5.8z"/>
  <path d="M349.4 522.5 c0.1 -20 0.2 -21.2 2.5 -25.8 1.3 -2.7 4.4 -7 7 -9.6 4.4 -4.6 4.5 -4.6 0.8 -0.4 -2.2 2.5 -5.1 7 -6.5 10.1 -2.5 5.4 -2.7 6.8 -3.3 26.2 l-0.6 20.5 0.1 -21z"/>
  <path d="M310.4 531 c0 -5.8 0.1 -8.1 0.3 -5.2 0.2 2.8 0.2 7.6 0 10.5 -0.2 2.8 -0.3 0.5 -0.3 -5.3z"/>
  <path d="M283.6 519.3 c-1.1 -1.1 -0.6 -2.1 1.2 -2.5 1.1 -0.3 1.9 0 1.9 0.8 0 1.5 -2.2 2.6 -3.1 1.7z"/>
  <path d="M310.4 507 c0 -5.2 0.1 -7.4 0.3 -4.7 0.2 2.6 0.2 6.8 0 9.5 -0.2 2.6 -0.3 0.4 -0.3 -4.8z"/>
  <path d="M295.3 505.6 c0 -1.1 0.5 -1.3 1.9 -0.5 1 0.5 1.8 1.2 1.8 1.4 0 0.3 -0.8 0.5 -1.8 0.5 -1 0 -1.9 -0.7 -1.9 -1.4z"/>
  <path d="M354.7 502.3 c-1.2 -1.1 -0.8 -2.3 0.8 -2.3 0.8 0 1.5 0.7 1.5 1.5 0 1.6 -1.2 2 -2.3 0.8z"/>
  <path d="M358.8 497.6 c-2.2 -1.6 -2.2 -2.2 -0.4 -2.9 0.9 -0.4 1.6 0.3 1.9 1.9 0.2 1.3 0.4 2.4 0.3 2.4 0 0 -0.9 -0.7 -1.8 -1.4z"/>
  <path d="M365.7 480.8 c0.3 -0.6 2.4 -1.9 4.7 -2.9 3.4 -1.5 6.6 -1.9 18.5 -1.9 7.9 0 14.2 0.2 14 0.4 -0.2 0.2 -7 0.6 -15.1 0.9 -12 0.4 -15.5 0.8 -18.7 2.4 -2.2 1.1 -3.8 1.6 -3.4 1.1z"/>
  <path d="M551 434 c0 -0.5 -1.5 -1 -3.4 -1 -1.9 0 -3.7 -0.4 -4.1 -1 -0.3 -0.6 -1.5 -0.6 -3 0 -2.4 0.9 -4.5 0.8 -7.9 -0.6 -1.4 -0.5 -1.7 -0.4 -1.2 0.4 0.4 0.7 0.1 1.2 -0.8 1.2 -0.8 0 -1.7 -0.4 -2.1 -0.9 -0.7 -1.3 -6.5 -1.1 -6.5 0.2 0 0.6 -0.5 0.6 -1.2 -0.1 -1.2 -0.9 -9.8 -1.1 -52 -1.2 -9.7 0 -13.7 -0.3 -13.5 -1.1 0.4 -1.9 -2.1 -2.1 -2.6 -0.2 -0.3 1 -0.5 -4.2 -0.6 -11.4 -0.1 -9.1 0.2 -13.3 1 -13.3 0.6 0 0.8 0.7 0.5 1.5 -0.3 1 0.1 1.8 1.2 2.2 0.9 0.4 2.7 1.8 3.9 3.2 l2.3 2.6 0 -2.3 c0 -1.3 -0.4 -2.1 -0.9 -1.7 -0.5 0.3 -1.2 0.1 -1.6 -0.5 -0.4 -0.6 0.5 -1 1.9 -1 1.8 0 2.4 0.4 2 1.5 -0.4 1 0 1.5 1.1 1.5 0.9 0 1.3 -0.4 1 -1 -0.3 -0.5 0 -1 0.7 -1 0.9 0 0.9 -0.3 0.2 -0.8 -0.6 -0.4 -1.3 -1.5 -1.7 -2.4 -0.7 -2.1 1.3 -2.4 3.1 -0.6 0.6 0.6 1.5 0.8 1.9 0.4 0.5 -0.4 0.1 -1.3 -0.7 -1.9 -1.6 -1.3 -1.5 -5.7 0.1 -5.7 0.5 0 0.9 1 0.9 2.3 0 1.6 0.3 1.9 0.9 0.8 0.7 -1.1 1 -1 1.4 0.5 0.3 1.4 0.5 1.2 0.6 -0.8 0 -1.5 -0.3 -3 -0.9 -3.3 -2.3 -1.4 -0.7 -2.3 3.3 -2 3.4 0.3 3.8 0.2 2.3 -0.6 -1 -0.6 -3.3 -0.9 -5.2 -0.6 -4.2 0.7 -4.5 -1.1 -0.3 -2 2 -0.4 2.8 -1 2.5 -1.9 -0.3 -0.8 0.1 -1.4 1 -1.4 0.8 0 1.3 0.4 1 0.9 -0.3 0.5 0.1 1.1 0.9 1.5 0.9 0.3 1.5 0 1.5 -0.9 0 -0.8 0.5 -1.5 1.1 -1.5 0.8 0 0.7 -0.6 -0.2 -1.7 -1 -1.1 -1 -1.4 -0.1 -0.9 0.8 0.5 1.2 0 1.2 -1.5 0 -2.2 0 -2.2 1.5 -0.3 1.3 1.6 1.4 1.6 0.9 0.2 -0.4 -1.1 -0.1 -1.8 0.6 -1.8 0.7 0 1.8 -0.8 2.5 -1.7 1.1 -1.5 1.5 -1.6 3.1 -0.3 1.3 1.2 1.8 1.2 2.1 0.3 0.3 -0.7 0.9 -1.3 1.4 -1.3 0.6 0 0.7 0.5 0.4 1 -1.2 1.9 0.7 1 2.7 -1.2 1.1 -1.3 1.7 -1.8 1.4 -1.1 -0.9 1.8 1 2.5 2.3 0.9 0.7 -0.8 1.3 -2.4 1.4 -3.5 0.2 -2.5 1.7 -2.8 1.8 -0.3 0.1 1.1 0.4 0.9 0.9 -0.8 0.8 -2.5 0.8 -2.5 0.9 -0.2 0.1 1.4 0.5 2 1.2 1.7 0.6 -0.4 1.6 0.1 2.4 1.1 0.7 1.1 1.7 1.6 2.1 1.1 0.4 -0.4 0.2 -0.7 -0.4 -0.7 -0.9 0 -0.9 -0.6 0 -2.5 1 -2.1 0.8 -2.8 -0.8 -4 -1.8 -1.4 -1.8 -1.4 0.4 -1.5 1.2 0 2.2 0.4 2.2 0.8 0 0.5 0.7 0.9 1.5 0.9 0.8 0 1.5 -0.6 1.5 -1.4 0 -0.7 0.5 -1.3 1.1 -1.3 0.6 0 0.9 -0.9 0.6 -2 -0.3 -1.1 -0.1 -2 0.4 -2 0.5 0 0.9 0.7 0.9 1.6 0 1.2 0.7 1.4 3 0.9 1.9 -0.4 3 -0.3 3 0.4 0 0.6 0.7 1.1 1.5 1.1 0.9 0 1.2 -0.6 0.9 -1.5 -0.4 -0.8 -1.6 -1.5 -2.9 -1.5 -1.3 0 -2.5 -0.7 -2.9 -1.5 -0.3 -0.8 -0.1 -1.5 0.4 -1.5 0.6 0 1 0.5 1 1 0 0.6 1 1 2.3 1 1.6 0 1.8 -0.3 0.9 -0.9 -1 -0.6 -0.7 -1 1.3 -1.3 2 -0.4 2.9 -0.1 3.5 1.6 0.7 1.8 0.9 1.8 0.9 0.3 0.1 -1 0.5 -1.6 1 -1.3 0.4 0.3 0.6 -0.5 0.4 -1.8 -0.4 -1.7 -1 -2.2 -2.4 -1.9 -1.3 0.4 -1.9 0 -1.9 -1.1 0 -1 0.9 -1.6 2.4 -1.6 1.3 0 3.7 -0.7 5.2 -1.5 l2.9 -1.5 -3.5 -0.2 c-1.9 -0.1 -5.2 -0.2 -7.2 -0.3 -2.1 0 -4 -0.4 -4.4 -0.7 -0.3 -0.4 10.7 -0.7 24.5 -0.8 20.8 0 25.4 0.2 26.6 1.4 2 2 2.2 59.1 0.3 59.9 -1 0.4 -0.9 0.8 0.2 1.6 1.3 1 1.3 1.3 -0.2 2.5 -1 0.7 -1.5 1.6 -1.1 1.9 0.3 0.4 0.1 0.7 -0.6 0.7 -0.7 0 -1 0.4 -0.7 0.9 0.3 0.5 0 1.1 -0.8 1.4 -0.8 0.3 -1.2 1.6 -1.1 3.1 0.2 1.4 -0.2 2.9 -0.7 3.3 -0.7 0.4 -0.8 0.1 -0.3 -0.7 0.6 -1 0.2 -1.1 -1.6 -0.7 -4.8 1.2 -9.9 3.2 -9.9 4 0 0.4 -1.2 0.5 -2.7 0.2 -1.6 -0.3 -2.2 -0.2 -1.5 0.1 1.7 0.8 1.5 2.4 -0.3 2.4 -0.8 0 -1.5 -0.4 -1.5 -1z m-94.6 -18.6 c0.3 -0.9 0.6 -2 0.6 -2.5 0 -1.1 -3 -1.2 -3.1 -0.1 0 0.4 -0.2 1.5 -0.4 2.5 -0.4 2.1 2.1 2.3 2.9 0.1z m30.7 -23.7 c-0.6 -0.8 -0.9 -2.8 -0.5 -4.8 0.6 -3.2 0.6 -3.3 -0.9 -1.4 -0.9 1.1 -1.7 2.5 -1.7 3 0 1.5 3.1 5.7 3.7 5.1 0.3 -0.3 0.1 -1.2 -0.6 -1.9z m31.6 -19.1 c-0.4 -0.9 -1.1 -1.6 -1.7 -1.6 -1.1 0 -1.4 3.3 -0.3 4.4 1.1 1 2.6 -1.1 2 -2.8z"/>
  <path d="M454.2 402.4 c0.1 -0.9 0.9 -1.9 1.6 -2.2 0.9 -0.3 1.3 0.2 1 1.4 -0.1 0.9 -0.9 1.9 -1.6 2.2 -0.9 0.3 -1.3 -0.2 -1 -1.4z"/>
  <path d="M463 400.8 c0 -1.8 1.8 -3.4 2.8 -2.4 0.3 0.4 -0.2 1.4 -1.1 2.3 -1.6 1.6 -1.7 1.6 -1.7 0.1z"/>
  <path d="M452.3 390 c0 -2.5 0.2 -3.5 0.4 -2.2 0.2 1.2 0.2 3.2 0 4.5 -0.2 1.2 -0.4 0.2 -0.4 -2.3z"/>
  <path d="M478.6 382.2 c-0.7 -1.1 -0.2 -3.3 1.2 -5.7 1.1 -1.9 1.1 -1.8 1.2 0.8 0 1.5 -0.5 2.7 -1.1 2.7 -0.8 0 -0.8 0.5 0.1 1.5 0.8 0.9 0.9 1.5 0.2 1.5 -0.6 0 -1.3 -0.4 -1.6 -0.8z"/>
  <path d="M488 377.9 c0 -1.9 0.2 -2.1 1 -0.9 0.9 1.3 1 1.3 1 0 0 -1.3 0.1 -1.3 1 0 0.5 0.8 1 1 1 0.4 0 -0.6 1.3 -0.9 3.3 -0.5 l3.2 0.5 -3 0.7 c-1.6 0.4 -4 1.1 -5.2 1.4 -1.9 0.6 -2.3 0.4 -2.3 -1.6z"/>
  <path d="M494.6 374.5 c0.4 -0.8 1 -1.2 1.5 -0.9 1.4 0.8 1 2.4 -0.6 2.4 -0.9 0 -1.2 -0.6 -0.9 -1.5z"/>
  <path d="M490 372.8 c0 -1.9 0.2 -2 1 -0.8 1.3 1.9 1.3 3 0 3 -0.5 0 -1 -1 -1 -2.2z"/>
  <path d="M493 354.8 c0 -1.2 0.7 -1.8 2.3 -1.7 1.5 0 1.7 0.2 0.7 0.6 -0.8 0.3 -1.8 1.1 -2.2 1.7 -0.5 0.7 -0.8 0.4 -0.8 -0.6z"/>
  <path d="M709.7 329 c-0.9 -1.1 -1.3 -2 -0.8 -2 1.1 0 3.5 2.9 2.9 3.5 -0.2 0.2 -1.2 -0.4 -2.1 -1.5z"/>
  <path d="M703.5 322 c-1.6 -1.7 -3.5 -3 -4.2 -3 -0.7 0 -1.3 -1 -1.3 -2.2 0 -2 0.6 -1.6 4.6 2.5 2.5 2.7 4.4 5 4.2 5.3 -0.3 0.2 -1.7 -1 -3.3 -2.6z"/>
  <path d="M627.5 303.9 c-1.1 -1.7 0 -2 2.1 -0.4 1.7 1.3 1.7 1.4 0.2 1.5 -0.9 0 -2 -0.5 -2.3 -1.1z"/>
  <path d="M645.7 299.4 c-0.8 -0.8 0.3 -3.4 1.4 -3.4 0.5 0 0.9 0.9 0.9 2 0 1.9 -1.1 2.6 -2.3 1.4z"/>
 </g>
 <g fill="#165785">
  <path d="M519 754.5 c0 -0.8 0.9 -1.5 2 -1.5 1.1 0 2 0.7 2 1.5 0 0.8 -0.9 1.5 -2 1.5 -1.1 0 -2 -0.7 -2 -1.5z"/>
  <path d="M544 753 c0 -0.5 0.7 -1 1.5 -1 0.8 0 1.5 0.5 1.5 1 0 0.6 -0.7 1 -1.5 1 -0.8 0 -1.5 -0.4 -1.5 -1z"/>
  <path d="M550 752 c0 -0.5 0.7 -1 1.5 -1 0.8 0 1.5 0.5 1.5 1 0 0.6 -0.7 1 -1.5 1 -0.8 0 -1.5 -0.4 -1.5 -1z"/>
  <path d="M497.6 749.5 c1 -1.5 1.2 -2.5 0.5 -2.5 -0.6 0 -1.1 -0.4 -1.1 -1 0 -0.5 0.7 -0.7 1.5 -0.4 2.1 0.9 1.5 6.4 -0.8 6.4 -1.6 0 -1.6 -0.2 -0.1 -2.5z"/>
  <path d="M506 751.1 c0 -1.7 1.5 -1.9 3.5 -0.5 1.8 1.3 1.8 1.4 -0.8 1.4 -1.5 0 -2.7 -0.4 -2.7 -0.9z"/>
  <path d="M514 750.5 c0 -0.8 -0.7 -1.5 -1.5 -1.5 -0.8 0 -1.5 -0.4 -1.5 -1 0 -0.5 -1.3 -1 -3 -1 -2 0 -3 0.5 -3 1.5 0 0.8 -0.4 1.5 -1 1.5 -1.5 0 -1.2 -1.6 0.5 -3 0.8 -0.7 1.5 -2.5 1.5 -4 0 -1.7 0.5 -2.7 1.5 -2.7 1.8 0 2 1.4 0.3 1.9 -2 0.7 0 3.8 2.5 3.8 2 0 2.3 -0.4 1.9 -2.5 -0.2 -1.4 -0.9 -2.2 -1.4 -1.8 -0.6 0.3 -0.9 0 -0.6 -0.8 0.3 -0.8 1.5 -1.5 2.9 -1.6 1.3 -0.1 1.8 0 1.2 0.3 -0.7 0.3 -1.3 1.5 -1.3 2.5 0 1.1 0.5 1.7 1 1.4 0.6 -0.3 1 -0.1 1 0.6 0 0.6 0.8 0.9 1.9 0.6 2.1 -0.5 3.8 2.9 1.7 3.6 -0.8 0.3 -0.8 0.8 0.1 1.7 1.7 1.8 3 -3.5 1.3 -5.5 -1 -1.2 -0.7 -2 1.8 -4.4 1.7 -1.5 2.8 -3.1 2.5 -3.5 -0.3 -0.3 -0.1 -0.6 0.5 -0.6 2.2 0 2 1.7 -0.4 4.3 -2.7 3 -3.1 4.4 -1 4.4 0.8 0 1.5 -0.3 1.4 -0.6 -0.2 -2.5 0.6 -3.9 2.7 -4.9 1.6 -0.7 2.5 -2 2.5 -3.4 0 -1.9 0.2 -2 1 -0.8 0.8 1.3 1 1.2 1 -0.2 0 -1.7 -1.2 -2.3 -3.4 -1.9 -0.5 0.1 -0.4 -0.5 0.4 -1.3 1.4 -1.8 4 -2.1 4 -0.6 0 0.6 0.6 1 1.4 1 2.2 0 1.2 -3.1 -1.5 -4.6 -2 -1.1 -2.1 -1.3 -0.5 -1.4 1.2 0 1.6 -0.5 1.2 -1.5 -0.3 -0.8 -0.1 -1.5 0.4 -1.5 0.6 0 1 -1.1 1 -2.5 0 -2.7 0.1 -2.8 2.4 -1.9 0.9 0.3 1.4 1 1.1 1.4 -0.3 0.5 0.2 0.7 1 0.6 1.8 -0.3 3.2 -1.6 1.7 -1.6 -0.7 0 -1.2 -0.8 -1.2 -1.7 0 -1.5 0.2 -1.6 1 -0.3 0.7 1.1 1 0.7 1 -1.8 0 -1.8 -0.4 -3.1 -0.9 -2.8 -0.5 0.4 -0.4 -0.5 0.2 -1.9 0.7 -1.3 1.4 -2 1.5 -1.5 0.2 0.6 0.8 0.8 1.3 0.4 0.5 -0.3 0.9 0.2 0.9 1 0 0.9 -0.4 1.6 -1 1.6 -0.5 0 -1 1.4 -1 3.1 0 1.7 0.4 2.8 1 2.4 0.6 -0.3 1 -0.2 1 0.4 0 0.5 -0.6 1.2 -1.2 1.4 -0.8 0.3 -0.6 0.6 0.5 0.6 1.2 0.1 1.7 -0.7 1.8 -2.6 0 -1.6 0.3 -2.3 0.5 -1.6 0.3 0.7 1.2 0.9 2 0.6 1.9 -0.7 6.4 2.3 6.5 4.5 0.1 1.1 0.4 0.8 0.8 -0.8 0.9 -2.8 0.2 -4.9 -0.9 -3 -0.5 0.8 -0.9 0.7 -1.3 -0.4 -0.7 -1.9 3 -3.1 6.2 -2.1 1.2 0.3 2.1 0.2 2.1 -0.4 0 -1.4 -2 -2.4 -5.5 -2.7 -2.4 -0.2 -2.6 -0.1 -1 0.6 1.4 0.6 1.6 0.9 0.5 0.9 -0.9 0.1 -2.1 -0.4 -2.7 -1 -0.8 -0.8 -1.3 -0.5 -1.8 1 -0.8 2.7 -2.5 2.7 -2.5 -0.1 0 -1.2 0.3 -1.9 0.6 -1.5 1 0.9 3.4 -1.9 4.5 -5.3 0.6 -1.6 1.8 -3 2.6 -3 1.3 0 1.3 0.3 -0.1 2.5 -2.4 3.6 -2 4.5 1.8 4.3 2.4 -0.1 3.3 -0.5 2.9 -1.5 -0.3 -0.7 -0.9 -1.1 -1.3 -0.8 -0.5 0.3 -0.7 -0.3 -0.5 -1.2 0.2 -1 0.4 -2.2 0.5 -2.8 0 -0.5 0.7 -0.1 1.6 1 1.1 1.5 1.7 1.7 2.3 0.7 0.4 -0.7 2.1 -1 3.9 -0.8 1.8 0.2 3.2 -0.1 3.2 -0.5 0 -0.5 -0.6 -0.9 -1.4 -0.9 -2.1 0 -3.8 -2.4 -2.5 -3.7 1.7 -1.7 0 -4.1 -2.4 -3.5 -2.1 0.5 -2.1 0.5 -0.3 -2.2 1.1 -1.8 1.5 -3.7 1.2 -5.2 -0.6 -2.4 -4.3 -6.8 -5.8 -7 -2 -0.3 -2.4 -0.5 -3.6 -1.2 -0.7 -0.5 -1 -1.6 -0.6 -2.5 0.4 -1.3 1 -1.4 2.4 -0.7 1 0.5 2 0.6 2.2 0.1 0.2 -0.4 2.1 -0.6 4.3 -0.2 4.3 0.6 4.4 0.8 4.5 9.9 0 1.9 0.5 3 1 2.7 0.6 -0.3 1 0.1 1 0.9 0 1.4 -1.2 2 -3.2 1.7 -0.5 0 -0.8 0.4 -0.8 1 0 0.6 0.8 0.9 1.7 0.7 2 -0.4 4.6 -5 3.4 -5.8 -0.5 -0.3 -1.2 -1.6 -1.6 -2.9 -0.5 -1.8 -0.4 -2.2 0.6 -1.6 1.1 0.6 1.2 0.5 0.2 -0.6 -1.9 -1.9 -1.6 -3.2 0.6 -2.6 1.4 0.3 1.8 0.1 1.4 -0.9 -0.3 -0.8 -1.3 -1.4 -2.2 -1.4 -1.4 0 -1.4 -0.2 -0.1 -1 0.8 -0.5 11.4 -0.9 23.5 -0.8 12.1 0 22.7 -0.2 23.5 -0.5 0.8 -0.3 5.3 -1.2 10 -2.2 16.2 -3.3 29.8 -9.9 40.6 -19.7 6.6 -6.1 18.4 -20.4 18.4 -22.3 0 -0.8 0.6 -2 1.4 -2.8 2.1 -2 4.7 -8.7 3.9 -10 -0.3 -0.5 -0.1 -0.7 0.4 -0.4 1.3 0.8 3.7 -7.9 2.7 -9.5 -0.5 -0.7 -0.2 -0.8 0.6 -0.3 1 0.6 1.2 0 0.8 -2.4 -0.2 -1.7 0 -3.1 0.5 -3.1 0.5 0 0.7 -2.1 0.4 -4.7 -0.4 -3.3 -0.3 -4 0.3 -2.3 l0.8 2.5 0.1 -2.6 c0.1 -2.2 0.6 -2.6 3.1 -2.7 3.7 -0.1 4 1.3 0.5 2.2 -2.7 0.7 -2.7 1 -1 8.3 0.4 1.8 1.1 3 1.6 2.7 0.5 -0.3 1.1 0.1 1.4 0.8 0.9 2.3 5.1 2 6.3 -0.5 0.6 -1.2 1.1 -1.6 1.1 -0.9 0.1 1.7 3 1.5 3.7 -0.3 0.4 -0.8 1 -1.2 1.5 -0.9 1.4 0.8 1.1 -0.6 -0.5 -2.2 -2.1 -2.1 -4.4 -1.7 -6.9 1.1 -2 2.2 -2.3 2.3 -3.7 0.8 -1.3 -1.5 -1.2 -1.6 0.4 -1 2.7 1 8.3 -5.2 7.7 -8.5 -0.1 -0.8 1.5 -1.2 3.2 -0.9 0.4 0 0.8 -0.3 0.8 -0.9 0.1 -0.5 0.2 -1.4 0.3 -1.9 0.2 -1.5 1.6 -2.6 1.6 -1.3 0 0.7 1.2 1.2 2.8 1.2 2.1 0 2.4 0.2 1.2 1 -1 0.7 -1.1 1 -0.2 1.1 0.6 0.1 1.7 0.3 2.2 0.4 0.6 0.1 1.9 0.3 3.1 0.4 1.9 0.1 1.9 0.2 0.5 1.7 -0.9 0.8 -1.6 2.4 -1.6 3.5 0 1.6 0.4 1.9 2.1 1.4 1.5 -0.5 1.9 -0.4 1.4 0.5 -0.5 0.8 0.4 1.1 3.1 0.9 5.2 -0.4 5.6 -0.6 4.1 -2.9 -1.4 -2.3 -2.7 -2.6 -2.7 -0.6 0 0.8 -0.8 1.3 -1.7 1.1 -1 -0.2 -2.1 -0.4 -2.5 -0.4 -0.5 -0.1 -0.8 -0.9 -0.8 -1.8 0 -1.4 0.2 -1.5 0.9 -0.5 0.7 1.1 1 1 1.5 -0.3 0.3 -0.9 0.6 -2.8 0.6 -4.1 0 -1.3 0.5 -2.4 1 -2.4 0.6 0 1 0.9 1 2 0 1 0.9 2.4 2 3 1.1 0.6 2 1.7 2 2.5 0 0.8 0.5 1.5 1 1.5 0.6 0 1 0.5 1 1.1 0 2.8 -12.5 26.2 -19.8 37.2 -2.2 3.2 -2.3 4 -1.1 4.8 1.1 0.7 0.9 0.9 -0.8 0.9 -1.3 0 -2.3 0.5 -2.3 1 0 0.6 0.5 1 1 1 0.6 0 1 0.6 1 1.4 0 0.9 -0.7 1.2 -1.9 0.9 -1 -0.3 -2.2 0 -2.5 0.6 -0.4 0.6 -0.2 1.1 0.3 1.1 0.6 0 1.1 0.8 1 1.8 0 1 -0.3 1.2 -0.6 0.5 -0.7 -1.8 -3 -1.6 -3.7 0.2 -0.3 0.8 -0.1 1.5 0.4 1.5 0.6 0 1 0.6 1 1.4 0 0.9 -0.7 1.2 -1.9 0.9 -1 -0.3 -2.2 0 -2.5 0.6 -0.4 0.6 -0.2 1.1 0.3 1.1 0.6 0 1.1 0.6 1.1 1.4 0 0.8 -0.8 1.2 -2.2 0.9 -1.6 -0.3 -2.7 0.3 -3.6 1.6 -0.7 1.3 -0.8 2.1 -0.2 2.1 0.5 0 1 0.6 1 1.4 0 0.9 -0.7 1.2 -1.8 0.9 -1 -0.2 -2.4 0.3 -3.1 1.1 -0.9 1.1 -1 1.6 -0.2 1.6 0.6 0 1.1 0.4 1.1 1 0 0.5 -0.7 0.7 -1.5 0.4 -2.1 -0.8 -4.1 0.6 -2.4 1.7 1.9 1.2 -0.2 4.5 -2.6 4.1 -2.3 -0.5 -9 5.9 -7.3 6.9 2.1 1.3 -5 8 -7.7 7.3 -1.3 -0.3 -2.7 0.1 -3.4 1 -0.9 1.1 -1 1.6 -0.2 1.6 0.6 0 1.1 0.4 1.1 1 0 0.5 -0.7 0.7 -1.6 0.3 -0.9 -0.3 -3.1 0.7 -5.4 2.6 -2.1 1.7 -4.2 3.1 -4.7 3.1 -0.4 0 -2.1 1.4 -3.7 3 -1.6 1.6 -3.7 3.2 -4.7 3.5 -1.1 0.4 -1.9 1 -1.9 1.3 0 0.4 -1.7 1.6 -3.7 2.7 -2.1 1.1 -5 2.9 -6.5 4.1 -1.5 1.2 -3.3 2.4 -4 2.6 -1.1 0.4 -1.1 0.8 0 2 1 1.3 1 1.7 -0.3 2.2 -0.8 0.3 -1.5 0.1 -1.5 -0.4 0 -1.7 -3 -1.1 -5.7 1 -1.4 1.1 -2.9 1.7 -3.4 1.4 -0.5 -0.3 -0.9 0 -0.9 0.6 0 0.6 -0.4 0.8 -1 0.5 -0.5 -0.3 -1 -0.1 -1 0.4 0 0.6 -0.9 1.1 -1.9 1.1 -2.6 0 -5.2 2.7 -4.5 4.5 0.7 1.8 0 1.9 -2.8 0.4 -1.2 -0.6 -2.3 -0.7 -2.7 -0.2 -0.3 0.5 -2.5 1.5 -4.8 2.1 -2.4 0.7 -4.3 1.6 -4.3 2 0 0.4 -1 0.8 -2.2 0.9 -1.1 0.1 -2.4 0.6 -2.7 1 -0.3 0.4 -1.3 0.9 -2.1 1 -0.8 0.1 -7 1.9 -13.8 4 -9.9 3 -12 4 -10.7 4.9 0.8 0.6 1.5 1.4 1.5 1.8 0 1.2 -2.3 0.6 -3.5 -1 -1 -1.4 -1.8 -1.5 -6.8 -0.4 -3.1 0.7 -5.4 1.7 -5.1 2.2 0.3 0.5 -0.5 0.6 -1.8 0.3 -1.4 -0.4 -6.5 0.1 -11.4 1 -4.9 0.8 -14 1.8 -20.1 2.2 l-11.3 0.6 0 -2.6 c0 -2.1 -0.5 -2.7 -2.1 -2.7 -1.1 0 -1.7 0.5 -1.4 1 0.4 0.6 1.1 0.8 1.6 0.5 0.5 -0.4 0.9 0.3 0.9 1.4 0 1.2 -0.4 2.1 -1 2.1 -0.5 0 -1 -0.7 -1 -1.5z m18 -6.3 c0 -0.4 -1.1 -0.9 -2.6 -1 -1.4 -0.1 -2.3 0.2 -1.9 0.8 0.7 1.2 4.5 1.4 4.5 0.2z m1.6 -2.6 c-0.4 -1.7 -0.1 -2.6 1.1 -3 1.5 -0.6 1.5 -0.8 0.3 -1.6 -2 -1.2 -3.2 1.2 -2.4 4.5 0.3 1.4 0.8 2.5 1.1 2.5 0.3 0 0.2 -1.1 -0.1 -2.4z m14.4 -16.5 c0 -1.2 -2 -2.5 -2.7 -1.8 -0.7 0.7 0.6 2.7 1.8 2.7 0.5 0 0.9 -0.4 0.9 -0.9z m4.5 -1.1 c0.4 -0.6 0.2 -1.7 -0.4 -2.4 -0.6 -0.7 -0.8 -1.6 -0.4 -1.9 0.3 -0.4 -0.1 -0.7 -1 -0.7 -1.9 0 -2.3 2.5 -0.7 3.5 0.6 0.4 0.8 1.1 0.5 1.6 -0.4 0.5 -0.2 0.9 0.4 0.9 0.5 0 1.3 -0.5 1.6 -1z m11.5 -4 c0 -2 -0.5 -3 -1.5 -3 -1.3 0 -1.3 0.3 -0.3 2 1.1 1.7 1 2.2 -0.2 3 -1.3 0.8 -1.2 1 0.3 1 1.2 0 1.7 -0.8 1.7 -3z m1.1 -6.3 c-1.6 -1.6 -2.6 0 -1 1.9 0.9 1.1 1.5 1.2 1.7 0.4 0.2 -0.6 -0.1 -1.7 -0.7 -2.3z m1.9 -3.7 c-0.6 -1.1 -1.3 -2 -1.5 -2 -0.3 0 -0.5 0.9 -0.5 2 0 1.1 0.7 2 1.5 2 1.3 0 1.4 -0.4 0.5 -2z m10 -0.9 c0 -0.4 -0.7 -0.8 -1.5 -0.8 -0.8 0 -1.5 0.6 -1.5 1.3 0 0.8 0.6 1.1 1.5 0.8 0.8 -0.4 1.5 -0.9 1.5 -1.3z m-5.6 0 c0.3 -0.4 -0.6 -1.3 -1.9 -1.9 -2 -0.9 -2.5 -0.9 -2.5 0.2 0 2.4 3.2 3.7 4.4 1.7z m4.9 -8.9 c-1 -0.7 -1.7 -1.5 -1.5 -1.7 0.9 -1.8 -0.1 -2.5 -1.3 -0.9 -0.8 1.1 -1.5 1.4 -1.5 0.7 0 -1.5 -2.1 -1.3 -3.2 0.2 -1.4 1.8 -0.8 2.6 1.2 2 1.1 -0.3 2 -0.3 2 0.2 0 0.4 1.4 0.8 3 0.8 2.7 0 2.9 -0.1 1.3 -1.3z m6.8 -4.6 c0.5 0.3 0.9 -0.2 0.9 -1.2 0 -1.3 -0.3 -1.4 -1.5 -0.4 -0.8 0.7 -1.5 1.8 -1.4 2.4 0 0.7 0.2 0.6 0.6 -0.2 0.2 -0.6 0.9 -1 1.4 -0.6z m-3.4 -4.2 c-0.3 -0.3 -1.6 -0.4 -2.9 -0.2 l-2.3 0.5 2.5 1 c2.3 1 4.1 0.1 2.7 -1.3z m137.5 -78.9 c1.5 -3.9 1.5 -4.5 0.2 -4.5 -0.8 0 -1.3 0.4 -1 0.8 0.2 0.4 0.1 1.4 -0.5 2.2 -0.7 1.3 -0.9 1.3 -1 0 -0.1 -0.8 -0.1 -1.8 -0.1 -2.1 0.1 -0.4 -0.8 -0.9 -1.9 -1.2 -1.6 -0.4 -1.9 -0.2 -1.3 1.5 0.4 1.5 0.3 1.8 -0.6 1.3 -0.6 -0.4 -2.3 -0.1 -3.8 0.6 -2.1 1.2 -2.6 1.2 -3 0.1 -0.3 -1 -1.1 -0.7 -2.8 0.9 -3.1 2.9 -3.1 4.6 0 2.6 3.5 -2.4 12.6 -1.2 11.1 1.4 -0.4 0.5 0.2 0.9 1.2 0.9 1.3 0 2.4 -1.4 3.5 -4.5z m12.8 -0.5 c-2.4 -1.5 -3.7 -1.1 -1.6 0.5 1.1 0.8 2.2 1.2 2.5 0.9 0.3 -0.3 -0.1 -0.9 -0.9 -1.4z m-30.3 -1.3 c0.8 -1.7 0.7 -2.6 -0.5 -3.6 -1.3 -1.3 -1.4 -1.2 -0.8 1.2 0.4 1.6 0.2 2.7 -0.4 2.7 -0.5 0 -1 0.5 -1 1 0 1.8 1.7 1 2.7 -1.3z m35.8 1.2 c1.2 -1.8 -0.3 -2.2 -2 -0.5 -1.4 1.4 -1.4 1.6 -0.1 1.6 0.8 0 1.8 -0.5 2.1 -1.1z m-10.2 -7.7 c-1.3 -0.2 -2.3 -1 -2.3 -1.8 0 -0.8 0.5 -1.2 1 -0.9 0.6 0.3 1 0.1 1 -0.4 0 -0.6 -0.4 -1.1 -1 -1.1 -0.5 0 -1 -0.6 -1 -1.4 0 -0.9 0.7 -1.2 2 -0.9 1.1 0.3 2 0 2 -0.6 0 -0.6 -0.9 -1.1 -2 -1.1 -1.1 0 -2.3 -0.7 -2.6 -1.5 -0.8 -1.9 -2.1 -1.9 -4 -0.1 -0.7 0.8 -1.9 1.6 -2.6 1.8 -0.8 0.3 -0.4 1.2 1 2.6 1.2 1.2 2.2 1.9 2.2 1.6 0 -0.3 0.7 0.2 1.6 1.1 0.9 0.8 1.4 2.1 1.1 2.8 -0.4 1 0.3 1.2 2.7 0.8 2.5 -0.4 2.7 -0.6 0.9 -0.9z"/>
  <path d="M718 597.6 c0 -0.2 0.7 -0.9 1.5 -1.6 1.2 -1 1.5 -1 1.5 0.4 0 0.9 -0.7 1.6 -1.5 1.6 -0.8 0 -1.5 -0.2 -1.5 -0.4z"/>
  <path d="M555.7 750.6 c-0.4 -1 0 -1.2 1.4 -0.9 2.2 0.6 2.6 2.3 0.5 2.3 -0.8 0 -1.6 -0.6 -1.9 -1.4z"/>
  <path d="M581 745.2 c0 -1.1 4.9 -2.6 5.8 -1.7 0.8 0.7 0 1.2 -3.1 2 -1.6 0.4 -2.7 0.3 -2.7 -0.3z"/>
  <path d="M595.7 740.4 c0.3 -0.8 1.1 -1.4 1.9 -1.4 2.1 0 1.7 1.7 -0.5 2.3 -1.4 0.3 -1.8 0.1 -1.4 -0.9z"/>
  <path d="M517 735.5 c0 -0.8 0.7 -1.5 1.6 -1.5 0.8 0 1.2 0.5 0.9 1 -1 1.5 0.2 1.2 2 -0.6 2 -2 3.3 -1.1 1.5 1.1 -1.6 2 -6 2 -6 0z"/>
  <path d="M558 697.4 c0 -1.6 -0.2 -1.7 -1 -0.4 -0.8 1.3 -1 1.2 -1 -0.2 0 -1.1 0.8 -1.8 1.9 -1.8 2.7 0 3.4 1.5 1.6 3 -1.2 1 -1.5 0.9 -1.5 -0.6z"/>
  <path d="M557.5 691 c0.3 -0.5 0.1 -1 -0.4 -1 -0.6 0 -1.1 -0.5 -1.1 -1 0 -0.6 1 -0.4 2.3 0.5 1.3 0.8 2.7 1.2 3 0.8 0.4 -0.3 0.7 -0.1 0.7 0.5 0 0.7 -1.2 1.2 -2.6 1.2 -1.4 0 -2.3 -0.4 -1.9 -1z"/>
  <path d="M559.7 686.5 c-0.9 -0.8 -2.5 -1.5 -3.6 -1.5 -1.3 0 -2.1 -0.6 -2.1 -1.7 0 -1.3 0.3 -1.4 1.2 -0.5 0.7 0.7 2.2 1.2 3.5 1.2 1.3 0 2.6 0.7 3 1.5 0.8 2.3 -0.2 2.8 -2 1z"/>
  <path d="M545.5 686 c-0.3 -0.5 0.1 -1 0.9 -1 0.8 0 1.8 0.5 2.1 1 0.3 0.6 -0.1 1 -0.9 1 -0.8 0 -1.8 -0.4 -2.1 -1z"/>
  <path d="M551.7 679.3 c-0.4 -0.3 -0.7 -1.3 -0.7 -2 0 -1.2 0.3 -1.2 1.5 0.1 0.8 0.8 1.5 1.7 1.5 2 0 0.8 -1.5 0.7 -2.3 -0.1z"/>
  <path d="M612.5 632.9 c-0.5 -1.6 -1.2 -1.9 -3.1 -1.5 -1.4 0.4 -2.4 0.2 -2.4 -0.4 0 -0.5 -0.7 -1 -1.5 -1 -0.8 0 -1.5 0.5 -1.5 1.1 0 1.4 -6.3 0.7 -6.8 -0.8 -0.2 -0.8 0.5 -1.3 1.8 -1.3 1.2 0 1.8 0.5 1.5 1 -0.9 1.5 0.7 1.1 3 -0.7 1.3 -1 1.5 -1.4 0.4 -1 -0.9 0.3 -2.2 0.1 -3 -0.4 -1.2 -0.8 -1.2 -1 0.1 -1.9 2 -1.3 4.3 -1.3 3.5 0 -0.3 0.6 0.3 1 1.3 1 1.1 0 2.2 0.7 2.6 1.5 0.3 0.8 1 1.5 1.6 1.5 0.6 0 0.5 -0.7 -0.2 -2 -0.7 -1.1 -1.8 -2 -2.5 -2 -1.8 0 -1.6 -2.6 0.4 -4.6 1.6 -1.6 1.8 -1.5 2.6 1 0.8 2.5 1 2.6 2.2 0.9 0.8 -1.1 1 -2.4 0.5 -3.4 -0.7 -1.2 -0.3 -1.9 1.5 -2.9 1.3 -0.7 2.2 -1.7 2 -2.1 -0.6 -0.9 3.4 -2.4 4.2 -1.6 0.8 0.9 -3.7 4.8 -4.7 4.2 -0.6 -0.4 -1 0.5 -1 1.8 0 2 0.4 2.4 2 2 1.1 -0.3 2 -1.3 2.1 -2.2 0 -1.3 0.2 -1.2 1 0.4 0.8 1.7 0.9 1.6 0.4 -0.6 -0.2 -1.4 0.2 -3.4 1 -4.5 0.8 -1 1.5 -3 1.5 -4.4 0 -1.8 0.3 -2.1 1.1 -1.3 0.9 0.9 1.8 0.7 3.7 -0.5 2.5 -1.6 2.6 -1.6 1.9 0.1 -0.6 1.6 0.1 2.1 2 1.5 0.4 -0.2 0.6 -1.1 0.5 -2 -0.3 -1.8 1.1 -2.3 5.2 -1.8 1.1 0.1 1.6 -0.3 1.1 -1 -0.4 -0.6 -2.1 -1 -3.9 -0.9 -4.5 0.4 -5.9 -0.7 -3.9 -3.1 0.9 -1 2 -1.7 2.4 -1.4 0.4 0.2 0.4 -0.8 0 -2.3 -0.5 -1.6 -0.4 -3.3 0.1 -4 4.8 -5.7 6.8 -6.7 6.8 -3.4 0 2.7 1.1 5.2 2 4.6 0.4 -0.3 1 0.1 1.3 0.9 0.6 1.4 -0.5 1.5 -3.5 0.1 -1.3 -0.5 -1.6 -1.4 -1.2 -3.1 0.9 -3.5 -0.8 -2.9 -2.6 1 -1.5 3.2 -1.5 3.2 0.7 2.8 1.3 -0.2 2.3 0.1 2.3 0.7 0 0.6 -0.4 1.1 -1 1.1 -1.6 0 -1.2 2.7 0.5 3.4 0.8 0.3 2 -0.1 2.7 -0.8 1.8 -1.8 3.8 -0.9 3.8 1.7 0.1 2.1 0.1 2.1 1.5 0.3 1.3 -1.7 1.3 -2.1 -0.2 -3.1 -1.3 -1 -1.4 -1.7 -0.3 -5 0.7 -2 1.5 -3.3 1.9 -2.8 0.3 0.6 1.2 1.2 2 1.4 1.1 0.4 1.1 0.8 -0.2 2 -1.7 1.8 -0.5 4.9 1.8 4.9 0.8 0 1.5 0.4 1.5 0.9 0 2.1 -1.3 4.1 -2.6 4.1 -1.4 0 -1.7 1 -1.5 4 0 0.8 -0.4 2.2 -0.9 3 -0.9 1.3 -1.1 1.3 -2 0 -0.5 -0.8 -0.6 -2.6 -0.3 -3.9 0.5 -2.2 0.4 -2.3 -0.9 -1 -1.4 1.2 -1.4 1.9 -0.3 4.5 1 2.4 1 3.5 0.2 4.4 -0.9 1 -0.9 1.4 0.1 1.7 1.7 0.7 1.5 2.8 -0.5 4.4 -1.4 1.2 -1.5 1.2 -0.9 0 1.8 -2.9 -1.8 -2.8 -6.3 0.3 -2.5 1.7 -4.8 3.4 -5.1 3.7 -0.6 0.7 -9.6 3.9 -11 3.9 -0.6 0 -1 -0.8 -1.1 -1.7 0 -1.4 -0.3 -1.3 -1.1 0.5 -0.7 1.4 -2 2.2 -3.7 2.3 -2.6 0 -2.6 0 -0.3 1.1 2.7 1.4 2.9 2.8 0.3 2.8 -1.1 0 -2.3 -0.9 -2.6 -2.1z m20.6 -15.1 c1.2 0.3 1.2 -1.5 -0.1 -2.3 -0.6 -0.3 -1.3 0.1 -1.6 0.9 -0.3 0.9 -1 1.4 -1.4 1.1 -1 -0.6 -2.1 2.1 -1.2 3 0.4 0.3 1.3 -0.2 2 -1.2 0.7 -1 1.8 -1.7 2.3 -1.5z m-5.5 -6.6 c-1 -1 -2.9 1.5 -2.1 2.8 0.6 0.9 1 0.8 1.7 -0.4 0.6 -1 0.7 -2 0.4 -2.4z m14 -1.7 c-0.8 -0.8 -2 -1.5 -2.7 -1.5 -0.9 0 -0.8 0.4 0.1 1.5 0.7 0.8 1.9 1.5 2.7 1.5 1.2 0 1.2 -0.2 -0.1 -1.5z"/>
  <path d="M620 633 c0 -0.5 0.7 -1 1.5 -1 0.8 0 1.5 0.5 1.5 1 0 0.6 -0.7 1 -1.5 1 -0.8 0 -1.5 -0.4 -1.5 -1z"/>
  <path d="M590.7 629.3 c0.4 -1.1 0.8 -1.3 1.1 -0.5 0.2 0.7 0.9 0.9 1.4 0.6 0.7 -0.4 0.8 -0.2 0.4 0.4 -1.2 1.9 -3.6 1.5 -2.9 -0.5z"/>
  <path d="M586.7 627.7 c-0.4 -1 -0.7 -2.6 -0.7 -3.5 0.1 -1.5 0.2 -1.5 1.1 0.1 0.6 1 0.9 2.5 0.7 3.5 -0.3 1.6 -0.4 1.5 -1.1 -0.1z"/>
  <path d="M598.1 627.3 c0 -0.8 -1.6 -1.3 -3.8 -1.4 -2.1 0 -3.1 -0.3 -2.3 -0.6 0.8 -0.2 2.2 -0.7 3 -1 0.8 -0.4 1.8 -0.5 2.3 -0.5 0.4 0.1 0.7 -0.7 0.7 -1.8 0 -1.1 0.4 -2 0.9 -2 1.5 0 2.5 2.1 1.3 2.9 -0.5 0.3 -1.2 1.7 -1.5 3.1 -0.2 1.4 -0.5 1.9 -0.6 1.3z"/>
  <path d="M592.4 618.9 c-0.3 -0.5 0.6 -0.9 2 -0.9 3.1 0 3.4 0.6 0.6 1.3 -1.1 0.3 -2.3 0.1 -2.6 -0.4z"/>
  <path d="M614.2 609.8 c0.3 -0.7 1.3 -1.5 2.3 -1.7 1.7 -0.3 1.7 -0.2 0.3 1.3 -2 1.9 -3.1 2.1 -2.6 0.4z"/>
  <path d="M710 595.3 c0 -0.8 0.4 -1.2 0.9 -0.8 0.5 0.3 1.2 -0.5 1.4 -1.7 0.3 -1.8 0.5 -1.6 0.6 0.8 0.1 2.1 -0.4 3.1 -1.4 3.1 -0.8 0 -1.5 -0.7 -1.5 -1.4z"/>
  <path d="M653.6 592.2 c0.1 -2 0.1 -3 -0.2 -2.1 -0.3 1.1 -1.2 1.5 -2.5 1.2 -2.7 -0.7 -2.4 -2.1 0.6 -2.9 1.4 -0.3 2.2 -1 1.9 -1.5 -0.3 -0.5 0 -0.9 0.5 -0.9 1.3 0 1.5 8.6 0.2 9.4 -0.5 0.3 -0.7 -1.1 -0.5 -3.2z"/>
  <path d="M714.4 589 c0.1 -1.7 0.4 -3 0.9 -3 1 0 0.9 4.8 -0.2 5.4 -0.4 0.3 -0.8 -0.8 -0.7 -2.4z"/>
  <path d="M630 588.9 c0 -0.5 1.1 -0.9 2.5 -0.9 1.4 0 2.5 0.2 2.5 0.4 0 0.2 -1.1 0.6 -2.5 0.8 -1.4 0.3 -2.5 0.1 -2.5 -0.3z"/>
  <path d="M643.1 587.8 c-0.1 -1.6 0.4 -2.8 0.9 -2.8 1.2 0 1.2 0.8 0 3.5 -0.8 1.8 -0.9 1.7 -0.9 -0.7z"/>
  <path d="M709.7 586.3 c-0.3 -0.5 0.3 -1.7 1.4 -2.6 2.2 -1.9 2.5 -0.9 0.6 1.8 -0.8 1 -1.7 1.4 -2 0.8z"/>
  <path d="M737.6 582.4 c-1.1 -2.8 -0.6 -4.4 1.2 -4.3 0.9 0 1.2 0.3 0.6 0.5 -0.6 0.3 -0.9 1.6 -0.6 2.9 0.5 2.8 -0.3 3.4 -1.2 0.9z"/>
  <path d="M740 582.5 c0 -1.4 1.2 -2 3.3 -1.6 0.5 0.1 0.6 -0.7 0.3 -1.7 -0.4 -1.3 -0.1 -1.9 0.9 -1.9 1.8 0 2 3.1 0.3 4.4 -2.5 1.9 -4.8 2.3 -4.8 0.8z"/>
  <path d="M645.8 581.3 c-3 -0.8 -2 -2 1.2 -1.5 1.7 0.2 3 0.8 3 1.3 0 0.9 -1.3 1 -4.2 0.2z"/>
  <path d="M653.1 578.6 c-0.9 -1 -0.8 -1.5 0.4 -2 1 -0.4 1.5 0.1 1.5 1.4 0 2.4 -0.4 2.5 -1.9 0.6z"/>
  <path d="M647.5 577.9 c-0.4 -0.6 -0.5 -1.3 -0.2 -1.6 0.7 -0.7 2.7 0.6 2.7 1.8 0 1.2 -1.7 1.2 -2.5 -0.2z"/>
  <path d="M749 578.3 c0 -0.5 0.5 -1.5 1 -2.3 0.8 -1.2 1 -1.1 1 0.8 0 1.2 -0.4 2.2 -1 2.2 -0.5 0 -1 -0.3 -1 -0.7z"/>
  <path d="M642 575.1 c0 -1.1 0.5 -2.3 1 -2.6 0.6 -0.4 1 0.5 1 1.9 0 1.4 -0.4 2.6 -1 2.6 -0.5 0 -1 -0.9 -1 -1.9z"/>
  <path d="M745 574 c-0.8 -0.5 -1.1 -1.2 -0.7 -1.6 0.4 -0.4 1.3 -0.2 1.9 0.4 1.5 1.5 0.7 2.4 -1.2 1.2z"/>
  <path d="M749 570.5 c0 -0.8 0.8 -1.5 1.8 -1.4 1 0 1.2 0.3 0.4 0.6 -0.6 0.2 -1 0.9 -0.6 1.4 0.3 0.5 0 0.9 -0.5 0.9 -0.6 0 -1.1 -0.7 -1.1 -1.5z"/>
  <path d="M742 566.8 c0 -1.2 0.3 -1.7 0.8 -1.2 0.4 0.5 1.1 1.2 1.5 1.5 0.5 0.3 0.2 0.9 -0.7 1.2 -1.2 0.5 -1.6 0 -1.6 -1.5z"/>
  <path d="M658.3 562.5 c0 -2.2 0.2 -3 0.4 -1.7 0.2 1.2 0.2 3 0 4 -0.3 0.9 -0.5 -0.1 -0.4 -2.3z"/>
  <path d="M638 558.1 c0 -0.5 0.7 -1.2 1.6 -1.5 2.4 -0.9 2.8 -0.7 1.4 0.9 -1.4 1.7 -3 2 -3 0.6z"/>
  <path d="M644 555 c0 -0.6 1.2 -1.5 2.6 -2 3.2 -1.3 3.1 -1.3 3.8 0.6 0.5 1.2 0.2 1.5 -1.2 1.2 -1.1 -0.3 -2.7 -0.1 -3.6 0.4 -1 0.6 -1.6 0.5 -1.6 -0.2z"/>
  <path d="M653.9 553.8 c0 -0.7 -0.2 -2.3 -0.5 -3.5 -0.2 -1.2 0.1 -2.5 0.6 -2.8 0.6 -0.4 1 1 1 3.4 0 2.3 -0.2 4.1 -0.5 4.1 -0.3 0 -0.5 -0.6 -0.6 -1.2z"/>
 </g>
</svg>